<svg width="355" height="355" viewBox="0 0 355 355" fill="none" xmlns="http://www.w3.org/2000/svg">
<path d="M355 177.5C355 275.531 275.531 355 177.5 355C79.4695 355 0 275.531 0 177.5C0 79.4695 79.4695 0 177.5 0C275.531 0 355 79.4695 355 177.5Z" fill="#FF9A20"/>
<circle cx="177.5" cy="177.5" r="168.5" fill="#F7F0BB"/>
<path d="M172.683 146.477V39.3919C172.683 34.8216 168.811 31.0645 164.114 31.5109C133.761 34.3957 106.11 46.5536 84.0304 65.1146C80.4388 68.1338 80.3823 73.4905 83.5953 76.7035L159.026 152.134C164.066 157.174 172.683 153.605 172.683 146.477ZM65.699 270.812L68.0031 268.891L65.699 270.812C68.712 274.425 74.0863 274.492 77.3077 271.271L153.096 195.482C158.136 190.442 154.567 181.825 147.439 181.825H40.2817C35.7281 181.825 31.9783 185.67 32.3965 190.35C35.1187 220.822 47.1828 248.605 65.699 270.812ZM65.5928 83.6469C47.0894 105.889 35.052 133.709 32.3758 164.214C31.9656 168.891 35.7133 172.727 40.2622 172.727H147.439C154.567 172.727 158.136 164.11 153.096 159.071L77.2071 83.1814C73.9833 79.9576 68.604 80.0273 65.5928 83.6469ZM84.1574 289.323C106.216 307.824 133.819 319.941 164.114 322.82C168.811 323.267 172.683 319.51 172.683 314.939V208.075C172.683 200.948 164.066 197.379 159.026 202.418L83.7157 277.729C80.5003 280.944 80.5597 286.306 84.1574 289.323ZM190.25 322.988C221.08 320.458 249.203 308.371 271.646 289.7C275.266 286.689 275.336 281.31 272.112 278.086L195.437 201.412C190.398 196.372 181.781 199.941 181.781 207.069V315.097C181.781 319.63 185.59 323.37 190.25 322.988ZM290.179 271.263C308.908 248.982 321.118 221.029 323.859 190.35C324.277 185.67 320.527 181.825 315.973 181.825H208.031C200.903 181.825 197.334 190.442 202.374 195.482L278.59 271.698C281.803 274.911 287.159 274.854 290.179 271.263ZM323.879 164.214C321.185 133.503 309.002 105.512 290.285 83.1954C287.268 79.5977 281.906 79.5383 278.691 82.7537L202.374 159.071C197.334 164.11 200.903 172.727 208.031 172.727H315.993C320.542 172.727 324.29 168.891 323.879 164.214ZM271.774 64.737C249.31 46.0058 221.138 33.8775 190.25 31.3435C185.59 30.9612 181.781 34.7015 181.781 39.2337V147.484C181.781 154.611 190.398 158.181 195.437 153.141L272.233 76.3457C275.454 73.1243 275.387 67.75 271.774 64.737Z" fill="#FF9A20" stroke="#FF9A20" stroke-width="6"/>
</svg>
